HIERARCHY
ROOT hip
{
	OFFSET 0.000000 0.000000 0.000000
	CHANNELS 6 Xposition Yposition Zposition Xrotation Zrotation Yrotation 
	JOINT abdomen
	{
		OFFSET 0.000000 3.422050 0.000000
		CHANNELS 3 Xrotation Zrotation Yrotation 
		JOINT chest
		{
			OFFSET 0.000000 8.486693 -0.684411
			CHANNELS 3 Xrotation Zrotation Yrotation 
			JOINT neck
			{
				OFFSET 0.000000 10.266162 -0.273764
				CHANNELS 3 Xrotation Zrotation Yrotation 
				JOINT head
				{
					OFFSET 0.000000 3.148285 0.000000
					CHANNELS 3 Xrotation Zrotation Yrotation 
					End Site
					{
						OFFSET 0.000000 3.148289 0.000000
					}
				}
			}
			JOINT lCollar
			{
				OFFSET 3.422053 6.707223 -0.821293
				CHANNELS 3 Yrotation Zrotation Xrotation 
				JOINT lShldr
				{
					OFFSET 3.285171 0.000000 0.000000
					CHANNELS 3 Zrotation Yrotation Xrotation 
					JOINT lForeArm
					{
						OFFSET 10.129278 0.000000 0.000000
						CHANNELS 3 Yrotation Zrotation Xrotation 
						JOINT lHand
						{
							OFFSET 8.486692 0.000000 0.000000
							CHANNELS 3 Zrotation Yrotation Xrotation 
							End Site
							{
								OFFSET 4.106464 0.000000 0.000000
							}
						}
					}
				}
			}
			JOINT rCollar
			{
				OFFSET -3.558935 6.707223 -0.821293
				CHANNELS 3 Yrotation Zrotation Xrotation 
				JOINT rShldr
				{
					OFFSET -3.148289 0.000000 0.000000
					CHANNELS 3 Zrotation Yrotation Xrotation 
					JOINT rForeArm
					{
						OFFSET -10.266159 0.000000 0.000000
						CHANNELS 3 Yrotation Zrotation Xrotation 
						JOINT rHand
						{
							OFFSET -8.349810 0.000000 0.000000
							CHANNELS 3 Zrotation Yrotation Xrotation 
							End Site
							{
								OFFSET -4.106464 0.000000 0.000000
							}
						}
					}
				}
			}
		}
	}
	JOINT lThigh
	{
		OFFSET 5.338403 -1.642589 1.368821
		CHANNELS 3 Xrotation Zrotation Yrotation 
		JOINT lShin
		{
			OFFSET -2.053232 -20.121670 0.000000
			CHANNELS 3 Xrotation Zrotation Yrotation 
			JOINT lFoot
			{
				OFFSET 0.000000 -19.300380 -1.231939
				CHANNELS 3 Xrotation Yrotation Zrotation 
				End Site
				{
					OFFSET 0.000000 -2.463878 4.653993
				}
			}
		}
	}
	JOINT rThigh
	{
		OFFSET -5.338403 -1.642589 1.368821
		CHANNELS 3 Xrotation Zrotation Yrotation 
		JOINT rShin
		{
			OFFSET 2.053232 -20.121670 0.000000
			CHANNELS 3 Xrotation Zrotation Yrotation 
			JOINT rFoot
			{
				OFFSET 0.000000 -19.300380 -1.231939
				CHANNELS 3 Xrotation Yrotation Zrotation 
				End Site
				{
					OFFSET 0.000000 -2.463878 4.653993
				}
			}
		}
	}
}
MOTION
Frames: 10
Frame Time: 0.039918
0.000000 43.528500 0.000000 0.000000 0.000000 0.000000 0.000000 0.000000 0.000000 0.000000 0.000000 0.000000 0.000000 0.000000 0.000000 0.000000 0.000000 0.000000 0.000000 0.000000 0.000000 0.000000 0.000000 0.000000 0.000000 0.000000 0.000000 0.000000 0.000000 0.000000 0.000000 0.000000 0.000000 0.000000 0.000000 0.000000 0.000000 0.000000 0.000000 0.000000 0.000000 0.000000 0.000000 0.000000 0.000000 0.000000 0.000000 0.000000 0.000000 0.000000 0.000000 0.000000 0.000000 0.000000 0.000000 0.000000 0.000000 0.000000 0.000000 0.000000 
0.399490 15.332401 2.219748 -107.000862 0.239096 -179.812210 -41.650955 -0.618098 -1.177377 -19.460247 -0.665920 -2.279250 0.211654 0.085482 0.106820 0.155619 0.000000 0.000000 1.607062 12.103139 47.503788 48.441067 -47.920391 1.943430 -57.634880 34.803043 10.527181 91.339653 51.710777 17.394903 -25.551950 41.966217 27.620363 -16.788218 55.496220 29.093761 55.404186 -31.033928 7.644913 -54.822502 13.001637 1.624677 -107.041718 57.392483 -10.379907 86.137688 -7.613921 -5.076176 56.979828 -8.089360 3.839432 -107.048912 -57.397659 10.384937 86.137138 7.613753 5.071186 56.979610 8.084616 -3.840804 
0.399490 15.256640 2.189711 -104.974716 0.222950 -179.817795 -39.466469 -0.618236 -1.177396 -17.917646 -0.665968 -2.279397 -0.182216 0.084581 0.104952 -0.340069 0.000000 0.000000 2.864778 12.272894 46.129242 49.015133 -47.887215 1.437765 -59.151939 35.426521 11.397484 91.339653 51.710777 17.394903 -25.659195 41.816223 26.889845 -17.230335 55.764797 28.693230 56.607040 -31.499111 8.269563 -55.259964 12.444910 1.903105 -104.099854 58.547424 -8.801481 86.137688 -7.613921 -5.076176 56.969887 -8.127625 5.173381 -104.105972 -58.553814 8.803549 86.137138 7.613753 5.071186 56.970047 8.122137 -5.176162 
0.399490 15.180880 2.159674 -102.938179 0.206932 -179.823975 -37.268845 -0.618373 -1.177421 -16.370504 -0.666011 -2.279547 -0.576387 0.083667 0.103090 -0.836365 0.000000 0.000000 4.131393 12.413493 44.745636 49.588463 -47.850639 0.932869 -60.695957 36.032204 12.296793 91.339661 51.710781 17.394905 -25.768829 41.667126 26.160046 -17.678928 56.031628 28.286137 57.823692 -31.953634 8.909701 -55.699615 11.889851 2.185507 -100.991837 59.658588 -7.051693 86.137688 -7.613921 -5.076176 56.960827 -8.166194 6.510388 -100.996529 -59.666061 7.050464 86.137138 7.613754 5.071186 56.961388 8.159954 -6.514586 
0.399490 15.105119 2.129637 -100.892426 0.191072 -179.830765 -35.059601 -0.618510 -1.177451 -14.819358 -0.666051 -2.279697 -0.970851 0.082738 0.101232 -1.333249 0.000000 0.000000 5.405573 12.524425 43.354328 50.160946 -47.810661 0.428830 -62.266773 36.619041 13.224959 91.339653 51.710781 17.394905 -25.880817 41.518970 25.431017 -18.134102 56.296661 27.872391 59.053993 -32.397038 9.565196 -56.141476 11.336555 2.471878 -97.707947 60.719063 -5.120510 86.137703 -7.613923 -5.076177 56.952667 -8.205035 7.850099 -97.710777 -60.727505 5.115567 86.137146 7.613754 5.071187 56.953579 8.198034 -7.855719 
0.399490 15.029358 2.099600 -98.838730 0.175405 -179.838150 -32.840302 -0.618646 -1.177487 -13.264771 -0.666087 -2.279849 -1.365599 0.081797 0.099379 -1.830704 0.000000 0.000000 6.685925 12.605251 41.956696 50.732510 -47.767303 -0.074258 -63.864120 37.186005 14.181745 91.339653 51.710773 17.394905 -25.995132 41.371815 24.702818 -18.595976 56.559921 27.451929 60.297718 -32.828857 10.235864 -56.585571 10.785125 2.762216 -94.239960 61.721523 -2.999358 86.137688 -7.613921 -5.076176 56.945423 -8.244123 9.192158 -94.240517 -61.730827 2.990263 86.137138 7.613753 5.071186 56.946682 8.236349 -9.199204 
0.399490 14.953598 2.069563 -96.778374 0.159962 -179.846115 -30.612547 -0.618781 -1.177528 -11.707296 -0.666118 -2.280002 -1.760622 0.080842 0.097531 -2.328713 0.000000 0.000000 7.971024 12.655630 40.554169 51.303074 -47.720581 -0.576310 -65.487556 37.732052 15.166765 91.339653 51.710773 17.394903 -26.111725 41.225674 23.975485 -19.064640 56.821293 27.024607 61.554668 -33.248661 10.921513 -57.031933 10.235662 3.056515 -90.581955 62.658291 -0.681946 86.137688 -7.613920 -5.076176 56.939095 -8.283422 10.536200 -90.579765 -62.668278 0.668275 86.137138 7.613753 5.071187 56.940674 8.274866 -10.544675 
0.399491 14.877837 2.039526 -94.712646 0.144777 -179.854645 -28.377987 -0.618915 -1.177574 -10.147511 -0.666146 -2.280157 -2.155910 0.079873 0.095689 -2.827258 0.000000 0.000000 9.259414 12.675294 39.148205 51.872524 -47.670498 -1.077216 -67.136589 38.256187 16.179525 91.339653 51.710777 17.394903 -26.230564 41.080605 23.249079 -19.540205 57.080738 26.590334 62.824574 -33.656013 11.621891 -57.480572 9.688261 3.354769 -86.731316 63.521366 1.834624 86.137688 -7.613921 -5.076176 56.933681 -8.322898 11.881859 -86.725922 -63.531837 -1.853335 86.137138 7.613753 5.071186 56.935577 8.313555 -11.891768 
0.399491 14.802076 2.009490 -92.642906 0.129881 -179.863739 -26.138296 -0.619048 -1.177626 -8.585987 -0.666169 -2.280312 -2.551454 0.078891 0.093853 -3.326320 0.000000 0.000000 10.549608 12.664071 37.740284 52.440784 -47.617065 -1.576903 -68.810516 38.757412 17.219378 91.339653 51.710781 17.394901 -26.351599 40.936626 22.523638 -20.022778 57.338211 26.148998 64.107132 -34.050476 12.336707 -57.931522 9.143026 3.656972 -82.689835 64.302628 4.548842 86.137688 -7.613921 -5.076176 56.929222 -8.362524 13.228772 -82.680832 -64.313431 -4.573014 86.137138 7.613753 5.071186 56.931385 8.352384 -13.240110 
0.399491 14.726315 1.979453 -90.570457 0.115304 -179.873383 -23.895172 -0.619178 -1.177683 -7.023300 -0.666188 -2.280468 -2.947245 0.077896 0.092022 -3.825881 0.000000 0.000000 11.840122 12.621883 36.331917 53.007732 -47.560276 -2.075278 -70.508545 39.234753 18.285540 91.339653 51.710781 17.394901 -26.474798 40.793789 21.799219 -20.512438 57.593651 25.700516 65.401985 -34.431648 13.065641 -58.384777 8.600054 3.963117 -80.260780 65.444550 5.614876 86.137688 -7.613921 -5.076176 56.925682 -8.402264 14.576561 -80.253067 -65.456268 -5.639509 86.137138 7.613753 5.071186 56.928139 8.391323 -14.589339 
